# xmcd
#
# Track frame offsets:
#   150
#   15170
#   31113
#   50991
#   67237
#   81904
#   99557
#   115876
#   131068
#   148196
#   163331
#   184107
#   202111
#   221596
#   240424
#   260336
#   276018
#   296772
#   316427
#
# Disc length: 4496 seconds
#
# Revision: 0
# Processed by: cddbd v1.5.2PL0 Copyright (c) Steve Scherf et al.
# Submitted via: GXTranscoder 2.0.1939
#
DISCID=28118e13
DTITLE=FGHfk  hk h - fg 
DYEAR=1900
DGENRE=Disco
TTITLE0=Toxic - Britney Spears
TTITLE1=Mr. Vain (recall) 2003 - Culture Beat
TTITLE2=My Immortal - Evanescence
TTITLE3=Turn Me On - Kevin Lyttle
TTITLE4=Poweless - Nelly Furtado
TTITLE5=fhndsm
TTITLE6=hndsmnj
TTITLE7=fgsnh dg
TTITLE8=gsh  st5
TTITLE9=th wsthq
TTITLE10=h5t zh5q
TTITLE11=w zwq5   
TTITLE12=5z q 5 
TTITLE13=ht q 
TTITLE14=hthw
TTITLE15=hwh w
TTITLE16=h 5thq
TTITLE17=hw 5zh 
TTITLE18=w54z q56 z5
EXTD=
EXTT0=
EXTT1=
EXTT2=
EXTT3=
EXTT4=
EXTT5=
EXTT6=
EXTT7=
EXTT8=
EXTT9=
EXTT10=
EXTT11=
EXTT12=
EXTT13=
EXTT14=
EXTT15=
EXTT16=
EXTT17=
EXTT18=
PLAYORDER=
